<svg width="10" height="18" viewBox="0 0 10 18" fill="none" xmlns="http://www.w3.org/2000/svg">
<path d="M9.13934 0.000355317C8.9231 0.00668187 8.71786 0.0954197 8.5671 0.247769L0.24369 8.42041C0.0876543 8.57369 0 8.78153 0 8.99825C0 9.21496 0.0876543 9.4228 0.24369 9.57608L8.5671 17.7487C8.6438 17.8272 8.73566 17.8898 8.83732 17.9329C8.93897 17.9761 9.04837 17.9989 9.1591 18C9.26984 18.0011 9.37969 17.9805 9.48221 17.9394C9.58474 17.8983 9.67788 17.8375 9.75619 17.7606C9.83449 17.6837 9.89639 17.5923 9.93825 17.4916C9.9801 17.3909 10.0011 17.2831 9.99996 17.1743C9.99883 17.0656 9.97562 16.9582 9.93168 16.8584C9.88775 16.7586 9.82397 16.6684 9.74409 16.5931L2.00916 8.99825L9.74409 1.40343C9.86436 1.28864 9.94651 1.14084 9.97977 0.979417C10.013 0.817991 9.99585 0.650465 9.93048 0.498792C9.8651 0.347119 9.75459 0.218376 9.61342 0.129434C9.47224 0.0404919 9.307 -0.00449953 9.13934 0.000355317Z" fill="white" fill-opacity="0.4"/>
</svg>
